<svg xmlns="http://www.w3.org/2000/svg" xmlns:xlink="http://www.w3.org/1999/xlink" width="500" zoomAndPan="magnify" viewBox="0 0 375 374.999991" height="500" preserveAspectRatio="xMidYMid meet" version="1.0"><defs><clipPath id="79df92c1a7"><path d="M 9.886719 0 L 365.25 0 L 365.25 375 L 9.886719 375 Z M 9.886719 0 " clip-rule="nonzero"/></clipPath><clipPath id="dbd6896ef2"><path d="M 97.632812 62.285156 L 363 62.285156 L 363 375 L 97.632812 375 Z M 97.632812 62.285156 " clip-rule="nonzero"/></clipPath></defs><rect x="-37.5" width="450" fill="#ffffff" y="-37.499999" height="449.999989" fill-opacity="1"/><rect x="-37.5" width="450" fill="#ffffff" y="-37.499999" height="449.999989" fill-opacity="1"/><g clip-path="url(#79df92c1a7)"><path fill="#122542" d="M 332.855469 119.1875 C 312.609375 99.320312 284.640625 86.871094 254.125 86.871094 L 98.457031 86.871094 L 98.457031 173.027344 C 89.457031 169.730469 81.433594 164.554688 74.835938 157.957031 C 62.765625 145.734375 55.414062 129.613281 55.414062 111.539062 C 55.414062 93.46875 62.765625 76.972656 74.835938 65.125 C 86.609375 53.054688 103.179688 45.703125 121.25 45.703125 L 254.125 45.703125 L 254.125 0.0390625 L 121.25 0.0390625 C 90.433594 0.0390625 62.765625 12.5625 42.519531 32.808594 C 22.273438 53.054688 9.75 80.574219 9.75 111.542969 C 9.75 142.058594 22.273438 170.027344 42.519531 190.273438 C 62.765625 210.144531 90.28125 223.042969 121.25 223.042969 L 254.125 223.042969 L 254.125 177.078125 L 144.195312 177.078125 L 144.195312 132.535156 L 254.199219 132.535156 C 272.269531 132.535156 288.464844 139.886719 300.613281 151.734375 C 312.386719 163.953125 319.808594 180.078125 319.808594 198.148438 C 319.808594 216.21875 312.460938 232.714844 300.613281 244.5625 C 288.390625 256.636719 272.269531 263.984375 254.199219 263.984375 L 98.53125 263.984375 L 98.53125 374.960938 L 144.195312 374.960938 L 144.195312 309.425781 L 254.199219 309.425781 C 284.71875 309.425781 312.6875 296.902344 332.933594 276.65625 C 352.800781 256.410156 365.25 228.890625 365.25 197.921875 C 365.25 167.328125 352.726562 139.433594 332.855469 119.1875 Z M 332.855469 119.1875 " fill-opacity="1" fill-rule="nonzero"/></g><g clip-path="url(#dbd6896ef2)"><path fill="#545454" d="M 330.589844 119.195312 C 310.347656 99.328125 282.378906 86.882812 251.863281 86.882812 L 96.214844 86.882812 L 96.214844 173.03125 C 87.214844 169.730469 79.195312 164.558594 72.59375 157.960938 C 60.523438 145.738281 53.175781 129.617188 53.175781 111.546875 C 53.175781 93.480469 60.523438 76.984375 72.59375 65.136719 C 84.367188 53.066406 100.9375 45.71875 119.007812 45.71875 L 251.863281 45.71875 L 251.863281 0.0585938 L 119.007812 0.0585938 C 88.191406 0.0585938 60.523438 12.578125 40.28125 32.824219 C 20.035156 53.066406 7.515625 80.582031 7.515625 111.546875 C 7.515625 142.0625 20.035156 170.03125 40.28125 190.273438 C 60.523438 210.144531 88.039062 223.039062 119.007812 223.039062 L 251.863281 223.039062 L 251.863281 177.078125 L 141.949219 177.078125 L 141.949219 132.542969 L 251.941406 132.542969 C 270.007812 132.542969 286.203125 139.890625 298.351562 151.734375 C 310.121094 163.957031 317.542969 180.078125 317.542969 198.148438 C 317.542969 216.214844 310.195312 232.710938 298.351562 244.558594 C 286.128906 256.628906 270.007812 263.976562 251.941406 263.976562 L 96.289062 263.976562 L 96.289062 374.941406 L 141.949219 374.941406 L 141.949219 309.414062 L 251.941406 309.414062 C 282.457031 309.414062 310.421875 296.890625 330.664062 276.648438 C 350.535156 256.402344 362.980469 228.886719 362.980469 197.921875 C 362.980469 167.332031 350.460938 139.441406 330.589844 119.195312 Z M 330.589844 119.195312 " fill-opacity="1" fill-rule="nonzero"/></g></svg>